<?xml version="1.0" standalone="no"?>
<!DOCTYPE svg PUBLIC "-//W3C//DTD SVG 20010904//EN"
 "http://www.w3.org/TR/2001/REC-SVG-20010904/DTD/svg10.dtd">
<svg version="1.0" xmlns="http://www.w3.org/2000/svg"
 width="1024.000000pt" height="1024.000000pt" viewBox="0 0 1024.000000 1024.000000"
 preserveAspectRatio="xMidYMid meet">

<g transform="translate(0.000000,1024.000000) scale(0.100000,-0.100000)"
fill="#000000" stroke="none">
<path d="M4840 9373 c-589 -40 -1030 -147 -1517 -367 -231 -104 -508 -269
-748 -446 -412 -303 -871 -795 -1135 -1215 -357 -569 -561 -1179 -621 -1860
-17 -183 -17 -627 -1 -785 17 -167 48 -381 75 -514 l23 -110 64 165 c375 962
868 1778 1559 2579 162 189 620 646 833 833 752 660 1552 1161 2473 1548 104
44 191 81 192 83 3 3 -217 41 -327 56 -225 32 -657 48 -870 33z"/>
<path d="M7360 8545 c-637 -205 -1238 -477 -1810 -818 -1464 -873 -2738 -2280
-3455 -3817 -171 -365 -334 -780 -445 -1130 -29 -91 -54 -170 -57 -175 -4 -13
150 -221 281 -379 138 -165 330 -361 468 -478 l117 -98 46 147 c26 82 51 164
57 183 6 19 46 132 88 250 424 1172 1054 2187 1932 3117 346 366 792 761 1175
1041 800 585 1592 987 2541 1292 132 42 190 65 185 73 -4 7 -47 59 -97 117
-130 150 -351 369 -491 486 -141 117 -321 254 -332 253 -4 -1 -96 -30 -203
-64z"/>
<path d="M8845 6686 c-1315 -479 -2415 -1202 -3379 -2221 -874 -925 -1534
-2002 -1946 -3175 -32 -91 -63 -177 -68 -192 -11 -26 -10 -26 91 -67 162 -65
395 -135 607 -181 150 -33 384 -70 392 -62 4 4 41 86 82 182 555 1306 1457
2495 2591 3416 587 477 1269 890 1980 1201 83 36 154 69 159 73 10 10 -16 170
-59 362 -57 249 -87 344 -223 696 -9 23 -19 42 -22 41 -3 0 -95 -33 -205 -73z"/>
<path d="M9175 4357 c-638 -365 -1246 -826 -1779 -1347 -489 -478 -935 -1037
-1327 -1660 -94 -151 -331 -561 -326 -566 4 -4 237 43 352 71 401 95 822 269
1190 490 44 26 87 48 95 47 8 0 96 -31 195 -67 261 -97 791 -274 1080 -362
227 -69 777 -222 782 -218 2 1 -114 432 -182 675 -92 331 -245 807 -381 1192
-46 130 -84 242 -84 248 0 6 29 60 65 120 201 339 355 737 449 1160 27 120 59
310 53 316 -2 2 -84 -43 -182 -99z"/>
</g>
</svg>
